# Blender 4.3.0
# www.blender.org
mtllib allTransfotmedCube.mtl
o Cube
v 10.507081 7.553727 -9.794945
v 10.285680 9.305286 -8.855252
v -1.035680 4.993752 -7.742824
v -1.257081 6.745312 -6.803131
v 11.257081 6.254688 -7.196869
v 11.035680 8.006248 -6.257176
v -0.285680 3.694714 -5.144748
v -0.507081 5.446273 -4.205055
vn 0.1107 -0.8758 -0.4698
vn -0.9619 -0.2133 0.1710
vn 0.2500 -0.4330 0.8660
vn -0.1107 0.8758 0.4698
vn -0.2500 0.4330 -0.8660
vn 0.9619 0.2133 -0.1710
vt 0.625000 0.500000
vt 0.875000 0.500000
vt 0.875000 0.750000
vt 0.625000 0.750000
vt 0.375000 0.750000
vt 0.625000 1.000000
vt 0.375000 1.000000
vt 0.375000 0.000000
vt 0.625000 0.000000
vt 0.625000 0.250000
vt 0.375000 0.250000
vt 0.125000 0.500000
vt 0.375000 0.500000
vt 0.125000 0.750000
s 0
usemtl Material
f 1/1/1 5/2/1 7/3/1 3/4/1
f 4/5/2 3/4/2 7/6/2 8/7/2
f 8/8/3 7/9/3 5/10/3 6/11/3
f 6/12/4 2/13/4 4/5/4 8/14/4
f 2/13/5 1/1/5 3/4/5 4/5/5
f 6/11/6 5/10/6 1/1/6 2/13/6
