v 3.6175482 -0.041672826 1.5516725
v 5.207548 -2.7559724 1.0859723
v 2.7124517 -0.6816727 2.1916723
v 4.3024516 -3.3959723 1.7259722
v 1.6975484 -0.60402787 -1.7259722
v 3.2875483 -3.3183274 -2.1916723
v 0.79245186 -1.2440277 -1.0859723
v 2.3824518 -3.9583273 -1.5516725
vt 0.625 0.5
vt 0.875 0.5
vt 0.875 0.75
vt 0.625 0.75
vt 0.375 0.75
vt 0.625 1.0
vt 0.375 1.0
vt 0.375 0.0
vt 0.625 0.0
vt 0.625 0.25
vt 0.375 0.25
vt 0.125 0.5
vt 0.375 0.5
vt 0.125 0.75
vn -0.0 1.0 -0.0
vn -0.0 -0.0 1.0
vn -1.0 -0.0 -0.0
vn -0.0 -1.0 -0.0
vn 1.0 -0.0 -0.0
vn -0.0 -0.0 -1.0
f 1/1/1 5/2/1 7/3/1 3/4/1
f 4/5/2 3/4/2 7/6/2 8/7/2
f 8/8/3 7/9/3 5/10/3 6/11/3
f 6/12/4 2/13/4 4/5/4 8/14/4
f 2/13/5 1/1/5 3/4/5 4/5/5
f 6/11/6 5/10/6 1/1/6 2/13/6
