# Blender 4.3.0
# www.blender.org
mtllib onlyRotatedCubeXYZ.mtl
o Куб
v -0.386463 -1.401425 -0.941624
v 0.775761 -1.388394 0.685971
v -1.715453 -0.239201 -0.001931
v -0.553229 -0.226171 1.625664
v 0.553229 0.226171 -1.625664
v 1.715453 0.239201 0.001931
v -0.775761 1.388394 -0.685971
v 0.386463 1.401425 0.941624
vn -0.4698 -0.8138 0.3420
vn -0.6645 0.5811 0.4698
vn 0.4698 0.8138 -0.3420
vn 0.6645 -0.5811 -0.4698
vn -0.5811 -0.0065 -0.8138
vn 0.5811 0.0065 0.8138
vt 0.375000 0.000000
vt 0.625000 0.000000
vt 0.625000 0.250000
vt 0.375000 0.250000
vt 0.625000 0.500000
vt 0.375000 0.500000
vt 0.625000 0.750000
vt 0.375000 0.750000
vt 0.625000 1.000000
vt 0.375000 1.000000
vt 0.125000 0.500000
vt 0.125000 0.750000
vt 0.875000 0.500000
vt 0.875000 0.750000
s 0
f 1/1/1 2/2/1 4/3/1 3/4/1
f 3/4/2 4/3/2 8/5/2 7/6/2
f 7/6/3 8/5/3 6/7/3 5/8/3
f 5/8/4 6/7/4 2/9/4 1/10/4
f 3/11/5 7/6/5 5/8/5 1/12/5
f 8/5/6 4/13/6 2/14/6 6/7/6
